<svg xmlns="http://www.w3.org/2000/svg" viewBox="21.789 27.525 1.179 2.62">
  <path d="M 21.789 28.227 L 21.789 28.102 L 21.831 28.043 L 21.831 27.733 L 21.962 27.626 L 21.968 27.525 L 22.075 27.59 L 22.242 27.602 L 22.307 27.739 L 22.474 27.793 L 22.611 27.995 L 22.587 28.209 L 22.557 28.299 L 22.569 28.513 L 22.623 28.757 L 22.778 28.936 L 22.944 29.055 L 22.968 29.365 L 22.855 29.472 L 22.742 29.764 L 22.641 29.788 L 22.605 29.996 L 22.456 30.145 L 22.319 30.068 L 22.271 29.871 L 21.962 29.77 L 21.807 29.484 L 21.902 29.46 L 21.807 29.246 L 21.908 28.996 L 21.867 28.745 L 21.819 28.662 L 21.926 28.346 L 21.884 28.239 Z" fill="#E090C0"/>
</svg>