<svg xmlns="http://www.w3.org/2000/svg" viewBox="21.546 27.336 1.217 2.575">
  <path d="M 21.81 28.194 L 21.785 28.017 L 21.612 27.959 L 21.604 27.674 L 21.678 27.55 L 21.806 27.336 L 21.967 27.414 L 22.095 27.381 L 22.243 27.55 L 22.412 27.658 L 22.429 27.856 L 22.392 28.046 L 22.346 28.289 L 22.392 28.586 L 22.557 28.813 L 22.685 28.863 L 22.763 29.044 L 22.73 29.263 L 22.582 29.275 L 22.495 29.556 L 22.285 29.577 L 22.318 29.911 L 22.053 29.907 L 21.983 29.639 L 21.587 29.408 L 21.719 29.35 L 21.682 29.152 L 21.546 29.102 L 21.682 28.681 L 21.727 28.458 L 21.67 28.388 Z" fill="#E090C0"/>
</svg>