<svg xmlns="http://www.w3.org/2000/svg" viewBox="15.641 21.958 4.535 2.25">
  <path d="M 15.641 23.182 L 15.882 23.14 L 16.028 23.312 L 16.165 23.312 L 16.268 23.163 L 16.444 23.201 L 16.559 23.293 L 16.712 23.289 L 16.854 23.178 L 17.145 23.128 L 17.354 23.099 L 17.553 23.109 L 17.626 23.193 L 17.729 23.14 L 17.611 22.807 L 17.654 22.639 L 17.779 22.551 L 17.922 22.524 L 17.991 22.429 L 18.016 22.31 L 18.238 22.172 L 18.47 22.303 L 18.609 22.308 L 18.736 22.271 L 18.874 22.147 L 18.952 21.958 L 19.232 21.966 L 19.389 21.993 L 19.54 22.156 L 19.925 22.116 L 19.992 22.223 L 20.045 22.512 L 20.164 22.762 L 20.176 22.988 L 20.118 23.06 L 19.822 23.065 L 19.78 23.151 L 19.884 23.265 L 19.794 23.375 L 19.792 23.66 L 19.685 23.676 L 19.587 23.812 L 19.477 23.86 L 19.451 23.955 L 19.215 23.923 L 19.171 24.029 L 18.93 23.985 L 18.77 24.048 L 18.707 24.141 L 18.582 24.208 L 18.424 24.17 L 18.038 24.161 L 17.762 24.064 L 17.52 24.045 L 17.427 23.975 L 17.272 23.889 L 17.216 23.766 L 17.225 23.606 L 17.093 23.613 L 17.025 23.691 L 16.712 23.679 L 16.572 23.747 L 16.405 23.812 L 16.208 23.779 L 16.071 23.698 L 16.041 23.742 L 15.894 23.723 L 15.759 23.647 L 15.746 23.586 L 15.811 23.526 L 15.808 23.333 L 15.706 23.269 Z" fill="#A05050"/>
</svg>