<svg xmlns="http://www.w3.org/2000/svg" viewBox="12.207 19.419 1.827 1.696">
  <path d="M 12.223 19.559 L 12.624 19.419 L 12.832 19.575 L 13.163 19.446 L 13.426 19.442 L 13.602 19.644 L 13.74 19.672 L 13.78 19.804 L 13.731 19.913 L 13.742 20.069 L 13.813 20.129 L 13.952 20.136 L 14.034 20.453 L 13.925 20.619 L 13.82 20.629 L 13.711 20.698 L 13.618 20.835 L 13.649 20.873 L 13.641 21.115 L 13.447 21.113 L 13.261 20.932 L 13.287 20.614 L 13.207 20.589 L 13.207 20.589 L 13.11 20.721 L 12.99 20.726 L 12.886 20.667 L 12.893 20.388 L 12.477 20.118 L 12.416 19.93 L 12.313 19.924 L 12.207 19.844 Z" fill="#707000"/>
</svg>