<svg xmlns="http://www.w3.org/2000/svg" viewBox="19.369 25.149 2.504 2.195">
  <path d="M 19.419 25.246 L 19.525 25.187 L 19.75 25.463 L 19.887 25.222 L 20.064 25.247 L 20.133 25.149 L 20.25 25.296 L 20.353 25.257 L 20.386 25.305 L 20.63 25.294 L 20.701 25.375 L 20.78 25.277 L 20.841 25.277 L 20.907 25.374 L 20.937 25.296 L 21.052 25.292 L 21.071 25.369 L 21.157 25.378 L 21.194 25.288 L 21.298 25.365 L 21.265 25.448 L 21.306 25.499 L 21.427 25.522 L 21.525 25.444 L 21.638 25.457 L 21.649 25.613 L 21.504 25.925 L 21.651 26.028 L 21.873 26.222 L 21.8 26.287 L 21.625 26.273 L 21.715 26.437 L 21.722 26.572 L 21.617 26.503 L 21.487 26.491 L 21.364 26.544 L 21.231 26.649 L 21.161 26.854 L 21.054 26.943 L 21.01 27.158 L 21.051 27.284 L 20.962 27.344 L 20.648 27.214 L 20.485 27.058 L 20.393 26.953 L 20.365 26.836 L 20.263 26.735 L 20.009 26.498 L 19.887 26.277 L 19.786 26.269 L 19.745 26.127 L 19.683 26.124 L 19.652 26.059 L 19.691 26.003 L 19.505 25.65 L 19.369 25.553 L 19.426 25.512 Z" fill="#E090C0"/>
</svg>