<svg xmlns="http://www.w3.org/2000/svg" viewBox="19.369 25.149 2.504 2.536">
  <path d="M 19.419 25.246 L 19.525 25.187 L 19.75 25.463 L 19.887 25.222 L 20.064 25.247 L 20.133 25.149 L 20.25 25.296 L 20.353 25.257 L 20.386 25.305 L 20.63 25.294 L 20.701 25.375 L 20.78 25.277 L 20.841 25.277 L 20.907 25.374 L 20.937 25.296 L 21.052 25.292 L 21.071 25.369 L 21.157 25.378 L 21.194 25.288 L 21.298 25.365 L 21.265 25.448 L 21.306 25.499 L 21.427 25.522 L 21.525 25.444 L 21.638 25.457 L 21.649 25.613 L 21.504 25.925 L 21.651 26.028 L 21.873 26.222 L 21.8 26.287 L 21.625 26.273 L 21.838 26.521 L 21.792 26.629 L 21.722 26.572 L 21.692 26.66 L 21.471 26.66 L 21.443 26.745 L 21.524 26.822 L 21.548 26.921 L 21.502 26.956 L 21.465 26.859 L 21.421 26.851 L 21.28 26.993 L 21.267 27.171 L 21.192 27.131 L 21.153 27.356 L 21.241 27.484 L 21.192 27.543 L 21.181 27.685 L 20.809 27.415 L 20.56 27.39 L 20.362 27.278 L 20.303 27.352 L 19.995 27.356 L 20.015 27.284 L 20.28 27.288 L 20.318 27.197 L 20.531 27.313 L 20.648 27.214 L 20.485 27.058 L 20.393 26.953 L 20.365 26.836 L 20.263 26.735 L 20.009 26.498 L 19.887 26.277 L 19.786 26.269 L 19.745 26.127 L 19.683 26.124 L 19.652 26.059 L 19.691 26.003 L 19.505 25.65 L 19.369 25.553 L 19.426 25.512 Z" fill="#C0A040"/>
</svg>