<svg xmlns="http://www.w3.org/2000/svg" viewBox="23.619 25.688 3.906 2.805">
  <path d="M 23.775 26.007 L 23.94 26.057 L 23.892 26.2 L 23.988 26.289 L 25.53 26.271 L 25.757 26.2 L 26.376 25.747 L 26.65 25.688 L 26.775 25.765 L 27.126 25.789 L 27.305 25.908 L 27.525 25.878 L 27.525 26.188 L 27.311 26.266 L 27.186 26.492 L 27.251 26.819 L 27.025 27.081 L 27.085 27.153 L 27.138 27.147 L 27.239 27.326 L 27.406 27.528 L 27.245 27.54 L 27.091 27.653 L 26.87 27.558 L 26.614 27.689 L 26.525 27.701 L 26.352 27.826 L 26.215 27.879 L 26.227 28.082 L 26.096 28.273 L 25.888 28.35 L 25.375 28.278 L 25.25 28.159 L 25.137 28.177 L 24.81 28.356 L 24.53 28.368 L 24.291 28.493 L 24.166 28.469 L 24.053 27.951 L 23.761 27.719 L 23.744 27.373 L 23.952 26.956 L 23.642 26.611 L 23.619 26.105 Z" fill="#C08040"/>
</svg>