<svg xmlns="http://www.w3.org/2000/svg" viewBox="23.619 25.688 4.013 2.771">
  <path d="M 23.779 25.888 L 23.94 26.057 L 23.892 26.2 L 23.988 26.289 L 25.53 26.271 L 25.757 26.2 L 26.32 25.776 L 26.65 25.688 L 26.775 25.765 L 27.126 25.789 L 27.305 25.908 L 27.632 25.969 L 27.61 26.274 L 27.352 26.305 L 27.249 26.507 L 27.253 26.894 L 27.025 27.081 L 27.021 27.216 L 27.185 27.195 L 27.215 27.379 L 27.443 27.616 L 27.262 27.582 L 27.146 27.685 L 26.905 27.508 L 26.614 27.689 L 26.471 27.685 L 26.445 27.852 L 26.118 27.951 L 26.286 28.14 L 26.14 28.325 L 25.671 28.39 L 25.237 28.312 L 25.108 28.175 L 24.889 28.153 L 24.773 28.295 L 24.53 28.368 L 24.115 28.459 L 24.007 28.36 L 24.053 27.951 L 23.663 27.569 L 23.779 27.418 L 23.659 27.087 L 23.882 27.074 L 24.011 26.795 L 23.698 26.446 L 23.619 26.105 Z" fill="#E090C0"/>
</svg>