<svg xmlns="http://www.w3.org/2000/svg" viewBox="18.04 24.102 3.588 3.157">
  <path d="M 18.04 25.1 L 18.551 25.119 L 18.648 24.952 L 18.792 25.165 L 18.88 25.105 L 19.001 25.249 L 19.099 25.212 L 19.089 25.04 L 19.14 24.975 L 19.094 24.929 L 19.191 24.826 L 19.289 24.826 L 19.363 24.743 L 19.377 24.618 L 19.298 24.525 L 19.275 24.455 L 19.521 24.358 L 19.521 24.358 L 19.567 24.265 L 19.683 24.288 L 19.697 24.218 L 19.669 24.163 L 19.716 24.102 L 19.823 24.167 L 19.948 24.163 L 20.161 24.386 L 20.361 24.534 L 20.389 24.613 L 20.635 24.701 L 20.667 24.771 L 20.932 24.766 L 21.22 24.599 L 21.22 24.599 L 21.285 24.673 L 21.326 24.775 L 21.28 24.882 L 21.308 24.901 L 21.396 24.891 L 21.382 25.035 L 21.466 25.105 L 21.619 25.124 L 21.628 25.198 L 21.507 25.179 L 21.466 25.24 L 21.517 25.435 L 21.405 25.513 L 21.271 25.435 L 21.331 25.346 L 21.187 25.277 L 21.145 25.374 L 21.067 25.291 L 20.941 25.277 L 20.918 25.346 L 20.844 25.254 L 20.774 25.267 L 20.751 25.332 L 20.663 25.346 L 20.621 25.277 L 20.37 25.305 L 20.361 25.263 L 20.236 25.263 L 20.12 25.151 L 20.115 25.258 L 19.911 25.23 L 19.85 25.193 L 19.781 25.43 L 19.614 25.272 L 19.577 25.202 L 19.488 25.184 L 19.405 25.267 L 19.391 25.532 L 19.419 25.639 L 19.54 25.69 L 19.683 26.005 L 19.646 26.052 L 19.66 26.135 L 19.725 26.145 L 19.767 26.265 L 19.883 26.312 L 19.99 26.456 L 19.999 26.516 L 20.236 26.771 L 20.329 26.781 L 20.37 26.952 L 20.612 27.198 L 20.556 27.259 L 20.143 26.929 L 20.143 26.924 L 19.781 26.799 L 19.595 26.841 L 19.526 26.651 L 19.191 26.432 L 19.057 26.247 L 19.089 26.145 L 19.201 26.14 L 19.21 26.08 L 19.071 26.019 L 18.955 25.917 L 18.894 25.797 L 18.876 25.629 L 18.936 25.513 L 18.574 25.221 L 18.504 25.23 L 18.328 25.643 L 18.235 25.639 L 18.04 25.258 Z M 18.613 25.316 L 18.581 25.444 L 18.618 25.496 L 18.665 25.487 L 18.743 25.541 L 18.756 25.499 L 18.73 25.462 L 18.676 25.433 L 18.659 25.367 Z M 18.529 25.45 L 18.58 25.622 L 18.56 25.789 L 18.473 25.635 L 18.504 25.552 Z M 19.836 26.93 L 19.978 26.934 L 20.137 26.999 L 19.934 27.024 L 19.836 27.01" fill="#C08080"/>
</svg>