<svg xmlns="http://www.w3.org/2000/svg" viewBox="15.47 14.222 2.317 2.77">
  <path d="M 15.845 14.648 L 16.227 14.656 L 16.347 14.537 L 16.347 14.458 L 16.749 14.222 L 16.732 14.497 L 16.749 14.634 L 16.65 14.76 L 16.59 15.038 L 16.534 15.09 L 16.534 15.142 L 16.604 15.152 L 16.535 15.211 L 16.531 15.302 L 16.64 15.22 L 16.674 15.307 L 16.878 15.264 L 16.889 15.457 L 16.674 15.608 L 16.653 15.509 L 16.567 15.518 L 16.567 15.786 L 16.374 15.783 L 16.404 15.942 L 16.249 15.906 L 16.264 16.031 L 16.19 16.111 L 16.198 16.347 L 16.131 16.405 L 16.117 16.545 L 16.19 16.545 L 16.227 16.641 L 16.087 16.67 L 15.727 16.619 L 15.742 16.17 L 15.61 15.994 L 15.47 15.994 L 15.551 15.81 L 15.507 15.582 L 15.573 15.156 L 15.698 14.832 Z M 16.312 16.116 L 16.626 16.061 L 16.797 16.148 L 16.802 16.506 L 16.694 16.552 L 16.531 16.498 L 16.358 16.389 L 16.322 16.238 Z M 16.927 15.95 L 17.131 15.95 L 17.139 15.855 L 17.223 15.847 L 17.223 15.752 L 17.345 15.76 L 17.312 16.002 L 17.375 16.015 L 17.418 15.823 L 17.445 16.021 L 17.526 15.804 L 17.426 15.736 L 17.648 15.619 L 17.768 15.847 L 17.787 16.023 L 17.613 16.075 L 17.556 16.251 L 17.64 16.276 L 17.659 16.406 L 17.505 16.446 L 17.502 16.617 L 17.228 16.555 L 17.309 16.449 L 17.057 16.417 L 17.057 16.314 L 16.979 16.303 L 17.014 16.186 L 17.025 16.029 L 16.941 16.037 Z M 16.924 16.65 L 17.051 16.65 L 17.157 16.739 L 17.245 16.722 L 17.309 16.914 L 17.258 16.931 L 17.233 16.885 L 17.106 16.931 L 16.918 16.794 L 16.969 16.732 Z M 16.88 16.45 L 16.883 16.65 L 16.785 16.843 L 16.772 16.645 Z M 17.295 16.656 L 17.368 16.65 L 17.498 16.786 L 17.414 16.846 L 17.414 16.992 L 17.36 16.959 L 17.347 16.805 Z" fill="#808000"/>
</svg>