<svg xmlns="http://www.w3.org/2000/svg" viewBox="7.482 11.014 4.579 8.674">
  <path d="M 9.425 13 L 9.663 12.93 L 9.663 12.804 L 9.754 12.664 L 9.81 12.685 L 9.929 12.475 L 10.006 12.419 L 10.132 12.447 L 10.237 12.545 L 10.748 12.559 L 10.706 12.818 L 10.608 12.825 L 10.461 13 L 10.314 13.014 L 10.153 13.084 L 10.272 13.196 L 10.188 13.238 L 10.055 13.273 L 10.104 13.315 L 10.069 13.378 L 10.111 13.399 L 10.202 13.35 L 10.47 13.325 L 10.752 13.425 L 10.965 13.462 L 11.119 13.497 L 11.154 13.588 L 11.098 13.763 L 10.944 13.84 L 10.895 13.973 L 10.727 14.225 L 10.657 14.239 L 10.552 14.428 L 10.496 14.463 L 10.401 14.46 L 10.468 14.652 L 10.223 14.666 L 10.111 14.729 L 10.139 14.82 L 10.216 14.855 L 10.433 14.841 L 10.622 15.002 L 10.804 15.373 L 10.765 15.702 L 10.785 15.94 L 10.86 16.227 L 11.08 16.312 L 11.219 16.707 L 11.221 16.895 L 11.314 17.037 L 11.309 17.221 L 11.005 16.978 L 11.34 17.479 L 11.289 17.643 L 11.078 17.81 L 11.255 17.925 L 11.375 17.829 L 11.713 17.845 L 11.872 17.99 L 11.926 18.113 L 11.903 18.405 L 11.759 18.682 L 11.58 18.708 L 11.565 18.861 L 11.451 18.85 L 11.447 18.821 L 11.337 18.819 L 11.318 18.88 L 11.371 18.94 L 11.298 18.953 L 11.293 19.035 L 11.189 19.041 L 11.2 19.21 L 11.565 19.281 L 11.565 19.39 L 11.211 19.597 L 10.987 19.575 L 10.938 19.608 L 10.72 19.597 L 10.709 19.559 L 10.235 19.564 L 10.207 19.483 L 10.093 19.477 L 10.071 19.395 L 9.984 19.412 L 9.945 19.488 L 9.705 19.493 L 9.624 19.472 L 9.629 19.553 L 9.542 19.564 L 9.487 19.515 L 9.395 19.493 L 9.362 19.564 L 9.242 19.324 L 8.996 19.357 L 8.996 19.395 L 8.849 19.357 L 8.718 19.619 L 8.62 19.652 L 8.38 19.493 L 8.102 19.428 L 8.026 19.515 L 7.769 19.663 L 7.649 19.548 L 7.556 19.592 L 7.627 19.493 L 7.791 19.423 L 8.467 18.953 L 8.604 18.812 L 9.182 18.915 L 9.497 18.624 L 9.515 18.528 L 9.215 18.643 L 9.144 18.719 L 8.964 18.703 L 8.849 18.435 L 8.8 18.424 L 8.751 18.495 L 8.604 18.446 L 8.571 18.228 L 8.276 18.332 L 8.195 18.07 L 8.844 17.879 L 9.002 17.65 L 8.964 17.644 L 8.991 17.317 L 8.909 17.295 L 8.74 17.377 L 8.713 17.312 L 8.936 17.192 L 9.166 17.05 L 9.4 17.055 L 9.651 17.132 L 9.722 17.044 L 9.678 16.957 L 9.804 16.821 L 9.782 16.684 L 9.842 16.575 L 9.907 16.428 L 9.989 16.357 L 9.918 16.33 L 9.787 16.417 L 9.712 16.434 L 9.593 16.098 L 9.644 15.949 L 9.843 15.741 L 10.009 15.707 L 9.737 15.652 L 9.576 15.711 L 9.469 15.715 L 9.312 15.694 L 9.308 15.805 L 9.057 15.567 L 9.01 15.626 L 9.053 15.749 L 8.985 15.758 L 8.964 15.473 L 9.061 15.473 L 9.308 15.103 L 9.342 14.938 L 9.282 14.827 L 9.423 14.653 L 9.393 14.559 L 9.329 14.559 L 9.295 14.674 L 9.206 14.615 L 9.066 14.802 L 9.193 14.844 L 9.091 15.069 L 9.036 15.04 L 9.036 14.874 L 8.879 15.095 L 8.76 15.027 L 9.032 14.721 L 8.993 14.644 L 9.074 14.427 L 9.376 14.019 L 9.338 14.015 L 9.121 14.138 L 8.879 14.274 L 8.764 14.151 L 8.853 14.172 L 8.908 14.113 L 8.866 13.994 L 8.947 13.956 L 9.023 14.113 L 9.125 14.036 L 8.998 13.858 L 9.146 13.82 L 9.151 13.726 L 9.316 13.56 L 9.346 13.463 L 9.372 13.454 L 9.431 13.361 L 9.325 13.335 L 9.35 13.212 L 9.435 13.212 Z M 7.638 15.302 L 7.754 15.299 L 7.86 15.183 L 7.956 15.024 L 7.966 14.899 L 8.065 14.828 L 8.195 14.951 L 8.155 15.037 L 8.036 15.08 L 8.098 15.119 L 8.248 15.07 L 8.463 15.063 L 8.562 15.179 L 8.645 15.415 L 8.558 15.602 L 8.565 15.645 L 8.662 15.64 L 8.705 15.873 L 8.542 16.017 L 8.413 15.984 L 8.393 16.084 L 8.199 16.126 L 8.274 15.915 L 8.185 15.696 L 7.886 15.709 L 7.69 15.873 L 7.561 15.762 L 7.588 15.623 L 7.482 15.464 L 7.605 15.431 Z M 8.933 16.249 L 9.195 16.021 L 9.238 16.051 L 9.198 16.17 L 9.102 16.253 Z M 9.897 19.592 L 10.043 19.509 L 10.133 19.642 L 10.06 19.688 L 9.944 19.672 Z M 8.523 14.682 L 8.622 14.533 L 8.731 14.527 L 8.758 14.603 L 8.953 14.404 L 9.029 14.424 L 8.798 14.673 L 8.738 14.666 L 8.721 14.732 L 8.609 14.759 L 8.629 14.663 Z M 8.864 12.848 L 8.86 12.752 L 8.943 12.729 L 8.953 12.497 L 9.019 12.487 L 9.056 12.534 L 9.112 12.438 L 9.387 12.365 L 9.364 12.497 L 9.338 12.5 L 9.334 12.587 L 9.258 12.583 L 9.222 12.716 L 9.109 12.765 L 9.016 12.762 L 8.98 12.842 Z M 8.579 12.915 L 8.748 12.905 L 8.811 12.958 L 8.758 13.031 L 8.629 13.014 Z M 8.887 13.199 L 8.996 13.08 L 9.063 13.166 L 9.129 12.981 L 9.172 13.06 L 9.155 13.252 L 9.192 13.266 L 9.169 13.372 L 9.275 13.445 L 9.238 13.557 L 9.155 13.607 L 9.122 13.571 L 9.169 13.527 L 8.993 13.471 L 8.986 13.252 Z M 10.71 12.412 L 10.72 12.256 L 10.796 12.293 L 10.773 12.111 L 10.856 12.058 L 10.936 12.141 L 10.903 12.27 L 11.071 12.28 L 11.058 12.366 L 10.989 12.379 L 10.889 12.333 L 10.833 12.422 Z M 11.873 11.123 L 11.999 11.014 L 11.999 11.223 L 12.045 11.201 L 12.061 11.294 L 12.009 11.323 L 11.966 11.544 L 11.814 11.703 L 11.9 11.514 L 11.886 11.369 L 11.817 11.425 L 11.79 11.319 L 11.913 11.276 Z" 
  fill="#C05050"/>
</svg>