<svg xmlns="http://www.w3.org/2000/svg" viewBox="22.06 12.2 2.962 1.768">
  <path d="M 22.722 12.734 L 22.943 12.66 L 22.989 12.571 L 23.091 12.492 L 23.262 12.483 L 23.262 12.423 L 23.355 12.445 L 23.537 12.402 L 23.546 12.276 L 24.065 12.309 L 24.092 12.38 L 24.524 12.352 L 24.655 12.292 L 24.675 12.2 L 24.797 12.248 L 24.802 12.407 L 24.737 12.467 L 24.638 12.751 L 24.698 12.844 L 24.709 13.024 L 24.769 13.084 L 24.758 13.204 L 24.659 13.277 L 24.665 13.424 L 24.893 13.404 L 25.02 13.547 L 25.022 13.654 L 24.933 13.668 L 24.854 13.569 L 24.78 13.553 L 24.772 13.73 L 24.744 13.797 L 24.742 13.919 L 24.599 13.885 L 24.434 13.942 L 24.335 13.968 L 24.093 13.758 L 23.806 13.648 L 23.52 13.68 L 23.279 13.87 L 23.29 13.428 L 23.159 13.422 L 23.129 13.485 L 23.077 13.548 L 23.039 13.471 L 22.913 13.466 L 22.793 13.286 L 22.804 13.16 L 22.866 13.157 L 22.862 13.097 L 22.749 13.084 L 22.757 12.934 L 22.695 12.928 Z M 22.103 13.058 L 22.269 13.024 L 22.279 12.904 L 22.344 12.902 L 22.49 13.016 L 22.495 13.09 L 22.358 13.152 L 22.339 13.232 L 22.277 13.229 L 22.225 13.12 L 22.114 13.119 Z M 22.06 13.456 L 22.276 13.336 L 22.548 13.305 L 22.68 13.402 L 22.438 13.615 L 22.272 13.622 L 22.293 13.731 L 22.162 13.95 L 22.131 13.866 L 22.197 13.727 L 22.084 13.649 Z" fill="#B08000"/>
</svg>