<svg xmlns="http://www.w3.org/2000/svg" viewBox="20.667 3.569 4.774 8.694">
  <path d="M 20.667 4.619 L 20.713 4.576 L 20.852 4.592 L 20.794 4.479 L 20.84 4.401 L 21.042 4.507 L 21.207 4.683 L 21.263 4.829 L 21.612 4.873 L 21.797 4.697 L 21.946 4.848 L 22.123 4.751 L 22.166 4.65 L 22.312 4.512 L 22.229 4.057 L 22.248 3.878 L 22.354 3.751 L 22.505 3.729 L 22.601 3.641 L 22.817 3.569 L 22.897 3.669 L 23.186 3.803 L 23.313 4.01 L 23.209 4.172 L 23.29 4.333 L 23.171 4.47 L 23.251 4.523 L 23.2 4.609 L 23.331 5.019 L 23.578 5.037 L 23.907 5.38 L 23.774 6.039 L 24.354 6.922 L 24.296 7.018 L 24.296 7.317 L 24.342 7.341 L 24.351 7.668 L 24.528 7.694 L 24.591 7.807 L 24.608 7.948 L 24.811 8.099 L 24.844 8.314 L 24.778 8.545 L 24.942 8.753 L 25.142 8.832 L 25.396 9.058 L 25.441 9.354 L 25.408 9.566 L 25.087 10.329 L 24.367 11.348 L 24.241 11.463 L 24.059 11.425 L 23.694 11.602 L 23.632 11.574 L 23.62 11.646 L 23.5 11.722 L 23.427 11.637 L 23.406 11.756 L 23.208 11.869 L 23.117 11.819 L 22.998 12.012 L 22.808 12.008 L 22.632 12.155 L 22.559 12.026 L 22.497 12.23 L 22.38 12.263 L 22.425 12.191 L 22.455 12.138 L 22.293 11.808 L 22.132 11.893 L 22.116 11.769 L 21.94 11.758 L 21.813 11.636 L 21.628 11.613 L 21.686 11.509 L 21.601 11.505 L 21.576 11.287 L 21.652 11.163 L 21.601 10.87 L 21.639 10.834 L 21.444 10.46 L 21.462 10.265 L 21.343 10.027 L 21.352 9.777 L 21.449 9.737 L 21.451 9.616 L 21.609 9.603 L 21.548 9.534 L 21.556 9.418 L 21.778 9.421 L 22.524 8.15 L 22.513 7.985 L 22.668 7.909 L 22.744 7.926 L 22.78 7.781 L 22.731 7.739 L 22.684 7.46 L 22.389 7.248 L 22.363 7.146 L 22.301 7.202 L 22.177 7.105 L 22.022 6.878 L 22.038 6.477 L 21.825 6.179 L 21.836 5.879 L 21.709 5.441 L 21.421 5.072 L 21.121 5.026 Z" fill="#A070F0"/>
</svg>