<svg xmlns="http://www.w3.org/2000/svg" viewBox="7.642 19.618 7.243 7.638">
  <path d="M 7.745 21.029 L 7.971 20.981 L 8.395 21 L 8.452 20.925 L 8.697 20.972 L 8.886 21.283 L 9.093 21.245 L 9.188 21.293 L 9.357 21.255 L 9.405 21.34 L 9.582 21.365 L 9.527 21.217 L 9.565 20.727 L 9.499 20.68 L 9.5 20.356 L 9.816 20.454 L 9.835 20.614 L 9.895 20.727 L 10.225 20.882 L 10.419 20.909 L 10.584 20.84 L 10.773 20.873 L 10.792 20.789 L 10.591 20.758 L 10.698 20.569 L 11.036 20.472 L 11.265 20.447 L 11.538 20.258 L 11.502 20.149 L 11.574 19.902 L 11.695 19.675 L 11.942 19.633 L 12.215 19.618 L 12.208 19.867 L 12.297 19.948 L 12.423 19.946 L 12.474 20.136 L 12.87 20.406 L 12.893 20.683 L 13.045 20.764 L 13.206 20.617 L 13.277 20.608 L 13.272 20.944 L 13.456 21.119 L 13.649 21.132 L 13.943 21.226 L 14.143 21.51 L 14.885 21.802 L 14.86 21.939 L 14.687 22.101 L 14.509 22.529 L 14.483 22.985 L 14.342 23.069 L 14.168 23.038 L 14.111 23.104 L 14.13 23.179 L 13.847 23.434 L 13.701 23.655 L 13.512 23.822 L 13.441 24.188 L 13.522 24.195 L 13.696 24.009 L 13.908 23.997 L 13.914 24.317 L 14.008 24.4 L 14.006 24.495 L 13.898 24.495 L 13.902 24.61 L 14.016 25.005 L 13.832 25.122 L 13.77 25.287 L 13.792 25.389 L 13.889 25.426 L 13.849 25.83 L 13.92 25.984 L 14.013 25.997 L 14.223 26.054 L 14.19 26.357 L 13.984 26.456 L 13.621 26.726 L 13.567 26.826 L 13.316 26.925 L 13.127 26.891 L 13.042 26.761 L 12.857 26.763 L 12.793 26.631 L 12.564 26.565 L 12.498 26.593 L 12.013 26.365 L 11.405 26.627 L 11.316 26.831 L 11.315 27.256 L 10.619 27.249 L 10.456 27.159 L 9.949 26.719 L 9.664 26.828 L 9.005 26.52 L 8.773 26.282 L 8.635 26.232 L 8.373 25.884 L 8.546 25.905 L 8.67 25.819 L 8.866 25.339 L 9.008 24.943 L 9.121 24.877 L 9.093 24.792 L 9.018 24.808 L 9.244 24.122 L 9.38 24.345 L 9.442 24.311 L 9.337 24.068 L 9.244 23.971 L 9.244 23.858 L 9.348 23.679 L 9.31 23.566 L 9.362 23.434 L 9.217 23.373 L 8.99 23.132 L 8.924 22.915 L 8.826 22.796 L 8.858 22.726 L 8.933 22.764 L 8.98 22.679 L 8.936 22.534 L 9.159 22.528 L 9.065 22.406 L 8.735 22.387 L 8.8 22.174 L 8.621 22.151 L 8.605 22.056 L 8.391 22.051 L 8.233 21.829 L 7.918 21.62 L 7.879 21.748 L 7.791 21.694 L 7.811 21.564 L 7.669 21.462 L 7.891 21.46 L 7.906 21.348 L 7.7 21.36 L 7.712 21.27 L 7.856 21.232 L 7.854 21.169 L 7.702 21.177 L 7.642 21.155 Z" fill="#F0A050"/>
</svg>