<svg xmlns="http://www.w3.org/2000/svg" viewBox="13.915 16.607 4.946 6.732">
  <path d="M 14.791 17.976 L 14.965 17.971 L 14.939 17.899 L 14.792 17.809 L 14.918 17.626 L 15.213 17.624 L 15.325 17.662 L 15.351 17.892 L 15.42 17.874 L 15.437 17.775 L 15.491 17.77 L 15.569 17.957 L 15.579 17.623 L 15.618 17.544 L 15.846 17.55 L 15.834 17.481 L 15.756 17.417 L 15.77 17.353 L 15.819 17.353 L 15.817 17.285 L 15.776 17.262 L 15.76 17.221 L 15.764 17.126 L 15.687 17.125 L 15.695 17.071 L 15.741 17.034 L 15.833 16.988 L 15.847 16.92 L 15.733 16.731 L 15.741 16.607 L 16.074 16.661 L 16.301 16.739 L 16.339 16.84 L 16.33 16.941 L 16.284 16.945 L 16.29 17.029 L 16.364 17.059 L 16.369 17.119 L 16.433 17.118 L 16.457 17.06 L 16.589 17.104 L 16.587 17.168 L 16.762 17.172 L 16.776 17.132 L 16.882 17.131 L 16.876 17.246 L 16.703 17.412 L 16.709 17.547 L 16.794 17.527 L 16.84 17.466 L 16.919 17.467 L 16.972 17.522 L 17.045 17.516 L 17.06 17.448 L 17.329 17.297 L 17.392 17.395 L 17.437 17.323 L 17.468 17.23 L 17.591 17.098 L 17.718 17.083 L 17.645 17.142 L 17.566 17.245 L 17.737 17.173 L 17.834 17.17 L 17.946 17.26 L 18.057 17.392 L 18.16 17.378 L 18.244 17.499 L 18.241 17.646 L 18.498 17.721 L 18.485 17.816 L 18.553 17.905 L 18.574 18.025 L 18.571 18.188 L 18.45 18.495 L 18.457 18.592 L 18.604 18.666 L 18.69 19.612 L 18.861 19.786 L 18.84 20.103 L 18.777 20.284 L 18.714 20.287 L 18.581 20.076 L 18.463 20.056 L 18.42 20.274 L 18.147 20.387 L 18.022 20.409 L 17.996 20.498 L 17.833 20.604 L 17.467 20.713 L 17.394 20.875 L 17.213 20.72 L 17.199 20.875 L 17.408 21.034 L 17.423 21.399 L 17.909 21.867 L 18.244 22.188 L 17.983 22.357 L 17.644 22.642 L 17.654 22.818 L 17.722 23.108 L 17.688 23.182 L 17.595 23.098 L 17.296 23.103 L 16.908 23.113 L 16.722 23.26 L 16.515 23.27 L 16.27 23.137 L 16.074 23.339 L 15.882 23.103 L 15.627 23.167 L 15.284 23.005 L 14.97 23.025 L 14.553 23.044 L 14.469 22.99 L 14.499 22.622 L 14.661 22.205 L 14.675 22.102 L 14.857 21.916 L 14.931 21.793 L 14.18 21.499 L 13.949 21.199 L 14.018 21.121 L 13.934 20.782 L 13.959 20.664 L 13.915 20.601 L 14.013 20.517 L 14.062 20.385 L 13.993 20.306 L 13.979 20.159 L 13.949 20.085 L 13.92 19.83 L 14.023 19.727 L 14.067 19.119 L 14.145 19.076 L 14.263 19.14 L 14.41 19.115 L 14.474 18.948 L 14.643 18.804 L 14.661 18.695 L 14.508 18.598 L 14.492 18.508 L 14.629 18.412 L 14.685 18.193 Z" fill="#50A090"/>
</svg>