<svg xmlns="http://www.w3.org/2000/svg" viewBox="22.155 27.903 5.946 6.186">
  <path d="M 22.736 28.89 L 23.217 28.858 L 23.378 28.624 L 23.658 28.604 L 23.705 28.671 L 23.892 28.644 L 23.945 28.377 L 24.099 28.43 L 24.42 28.41 L 24.647 28.33 L 24.84 28.177 L 25.047 28.177 L 25.114 28.264 L 25.261 28.344 L 25.502 28.317 L 25.635 28.424 L 25.809 28.344 L 26.176 28.317 L 26.29 28.197 L 26.183 27.903 L 26.463 28.003 L 26.537 28.223 L 26.39 28.304 L 26.323 28.497 L 26.377 28.591 L 26.216 28.851 L 26.163 28.731 L 25.816 28.744 L 25.548 28.611 L 25.235 28.818 L 25.181 28.698 L 25.047 28.698 L 24.86 28.945 L 24.68 28.858 L 24.52 28.971 L 24.68 29.058 L 24.7 29.219 L 24.64 29.339 L 24.814 29.479 L 24.814 29.639 L 24.54 29.372 L 24.366 29.392 L 24.413 29.519 L 24.627 29.606 L 24.6 29.679 L 24.326 29.586 L 24.279 29.359 L 24.112 29.332 L 24.012 29.199 L 24.099 29.032 L 23.819 29.185 L 23.865 29.399 L 23.778 29.553 L 24.032 29.806 L 24.032 29.953 L 24.306 30.154 L 24.38 30.367 L 24.159 30.2 L 24.006 30.314 L 24.186 30.454 L 24.153 30.574 L 24.319 30.481 L 24.466 30.541 L 24.627 30.728 L 24.981 30.768 L 25.074 31.042 L 25.101 31.182 L 24.974 31.156 L 24.934 30.982 L 24.66 30.975 L 24.62 30.848 L 24.266 30.615 L 24.086 30.668 L 24.046 30.588 L 23.885 30.594 L 23.812 30.628 L 23.879 30.721 L 24.112 30.741 L 24.346 30.848 L 24.36 30.942 L 24.56 30.982 L 24.627 31.109 L 24.8 31.115 L 24.927 31.209 L 24.84 31.369 L 24.981 31.556 L 24.921 31.703 L 24.64 31.416 L 24.186 31.436 L 24.139 31.336 L 24.386 31.296 L 24.286 31.202 L 24.066 31.222 L 23.785 31.075 L 23.565 31.075 L 23.398 31.015 L 22.817 31.109 L 22.81 30.935 L 22.55 30.701 L 22.656 30.608 L 22.83 30.695 L 22.904 30.568 L 22.79 30.488 L 22.503 30.474 L 22.256 30.274 L 22.155 30 L 22.376 29.866 L 22.269 29.673 L 22.523 29.599 L 22.583 29.259 L 22.75 29.232 Z M 22.875 31.525 L 23.005 31.343 L 23.249 31.286 L 23.286 31.182 L 23.442 31.14 L 23.6 31.29 L 23.884 31.317 L 24.145 31.509 L 24.29 31.603 L 24.29 31.744 L 24.561 31.811 L 24.629 31.993 L 24.322 31.931 L 24.082 31.77 L 23.963 31.832 L 24.296 32.488 L 24.238 32.535 L 24.259 32.644 L 24.431 32.769 L 24.353 32.831 L 24.16 32.686 L 24.056 32.483 L 23.921 32.483 L 23.843 32.628 L 23.91 32.863 L 23.858 32.863 L 23.749 32.634 L 23.598 32.29 L 23.447 32.327 L 23.432 32.441 L 23.452 32.597 L 23.255 32.504 L 23.171 32.269 L 23.192 32.124 L 23.301 32.02 L 23.187 31.848 Z M 22.314 31.182 L 22.398 31.216 L 22.442 31.145 L 22.629 31.354 L 22.454 31.362 L 22.294 31.313 Z M 22.526 31.52 L 22.721 31.661 L 22.624 31.767 L 22.476 31.607 Z M 24.695 33.626 L 25.076 33.582 L 25.202 33.744 L 25.381 33.748 L 25.588 33.602 L 25.815 33.606 L 25.787 33.744 L 26.189 33.728 L 26.249 33.659 L 26.388 33.655 L 26.323 33.744 L 26.319 33.874 L 26.444 33.87 L 26.623 33.695 L 26.765 33.7 L 26.769 33.911 L 26.7 33.955 L 26.31 33.943 L 25.783 34.089 L 25.62 34.085 L 25.612 33.943 L 25.498 33.951 L 25.466 33.89 L 25.084 33.894 L 25.056 33.862 L 24.678 33.858 Z M 27.74 32.783 L 28.054 32.516 L 28.101 32.756 L 27.794 33.071 Z M 22.485 30.737 L 22.545 30.759 L 22.545 30.886 L 22.421 30.927 L 22.412 30.785 Z M 25.579 29.558 L 25.702 29.51 L 25.832 29.507 L 25.8 29.58 L 25.762 29.589 L 25.781 29.738 L 25.655 29.738 L 25.629 29.675 L 25.553 29.678 L 25.553 29.678 Z M 26.119 30.206 L 26.312 30.152 L 26.436 30.013 L 26.54 30.035 L 26.518 30.117 L 26.705 30.298 L 26.682 30.374 L 26.404 30.37 L 26.395 30.272 L 26.477 30.26 L 26.471 30.19 L 26.372 30.184 L 26.36 30.279 L 26.214 30.288 Z M 25.182 30.465 L 25.249 30.478 L 25.36 30.586 L 25.36 30.703 L 25.186 30.598 Z M 25.097 31.256 L 25.303 31.237 L 25.357 31.326 L 25.619 31.465 L 25.648 31.607 L 25.565 31.585 L 25.49 31.471 L 25.347 31.358 L 25.183 31.37 Z M 25.193 31.848 L 25.285 31.848 L 25.304 31.931 L 25.184 32.01 Z M 25.769 32.082 L 25.927 32.092 L 26.028 32.022 L 26.148 32.025 L 26.114 32.253 L 25.984 32.275 L 25.93 32.123 L 25.851 32.225 L 25.699 32.272 L 25.706 32.168 Z M 25.174 32.478 L 25.244 32.424 L 25.345 32.452 L 25.37 32.358 L 25.5 32.449 L 25.377 32.468 L 25.354 32.547 L 25.237 32.56 L 25.177 32.611 Z M 24.212 32.875 L 24.323 32.967 L 24.304 33.074 L 24.197 33.062 L 24.152 33.001 L 24.152 32.853 Z M 27.344 33.156 L 27.3 33.346 L 27.357 33.511 L 27.24 33.476 L 27.136 33.536 L 27.158 33.615 L 27.259 33.599 L 27.249 33.533 L 27.433 33.546 L 27.461 33.432 L 27.379 33.33 L 27.379 33.27 L 27.458 33.194 L 27.427 33.125 Z" fill="#E090C0"/>
</svg>