<svg xmlns="http://www.w3.org/2000/svg" viewBox="19.579 22.192 3.901 2.568">
  <path d="M 19.579 23.807 L 19.694 23.693 L 19.801 23.696 L 19.79 23.432 L 19.897 23.256 L 19.797 23.164 L 19.84 23.076 L 20.15 23.069 L 20.188 22.988 L 20.18 22.762 L 20.563 23.026 L 21.019 22.984 L 21.141 22.77 L 21.577 22.605 L 21.631 22.533 L 21.731 22.59 L 21.864 22.582 L 22.029 22.491 L 22.094 22.353 L 22.27 22.223 L 22.569 22.192 L 22.787 22.246 L 22.925 22.334 L 23.066 22.284 L 23.273 22.368 L 23.457 22.514 L 23.48 22.64 L 23.365 22.801 L 23.2 22.873 L 23.07 22.984 L 23.059 23.153 L 23.009 23.233 L 23.005 23.333 L 22.879 23.501 L 22.783 23.811 L 22.676 23.983 L 22.634 24.171 L 22.117 24.385 L 22.014 24.313 L 21.891 24.382 L 21.723 24.397 L 21.662 24.454 L 21.558 24.527 L 21.413 24.523 L 21.34 24.604 L 21.202 24.604 L 20.973 24.76 L 20.666 24.76 L 20.552 24.657 L 20.448 24.661 L 20.364 24.588 L 20.364 24.519 L 20.234 24.408 L 20.153 24.389 L 19.901 24.16 L 19.809 24.049 L 19.706 23.846 L 19.706 23.846 Z" fill="#60E040"/>
</svg>