<svg xmlns="http://www.w3.org/2000/svg" viewBox="5.31 3.741 3.633 2.972">
  <path d="M 5.438 4.739 L 5.612 4.81 L 5.923 4.832 L 6.103 4.979 L 6.179 4.985 L 6.25 4.892 L 6.147 4.881 L 6.005 4.778 L 6.098 4.701 L 6.338 4.707 L 6.354 4.63 L 6.239 4.614 L 6.218 4.467 L 6.103 4.39 L 5.978 4.412 L 5.776 4.385 L 5.71 4.287 L 5.541 4.232 L 5.699 4.145 L 5.787 4.298 L 5.841 4.303 L 5.868 4.041 L 5.95 4.161 L 5.961 4.281 L 6.027 4.319 L 6.07 4.227 L 6.01 4.172 L 6.005 4.063 L 6.055 4.034 L 6.042 3.912 L 6.136 4.014 L 6.158 3.908 L 6.238 3.875 L 6.288 3.998 L 6.245 4.145 L 6.343 4.128 L 6.381 4.298 L 6.452 4.107 L 6.37 3.97 L 6.425 3.927 L 6.523 4.008 L 6.529 3.894 L 6.403 3.872 L 6.409 3.807 L 6.534 3.741 L 6.654 3.899 L 6.691 4.061 L 6.751 4.345 L 6.67 4.341 L 6.714 4.429 L 6.61 4.543 L 6.512 4.51 L 6.534 4.625 L 6.474 4.75 L 6.512 4.805 L 6.447 4.914 L 6.512 4.936 L 6.567 4.854 L 6.599 4.887 L 6.741 4.685 L 6.779 4.843 L 6.987 4.652 L 7.085 4.412 L 7.172 4.448 L 7.168 4.697 L 7.134 4.821 L 7.216 4.838 L 7.314 4.63 L 7.57 4.609 L 7.57 5.099 L 7.696 4.909 L 7.729 4.669 L 7.843 4.745 L 7.87 4.914 L 7.974 4.909 L 8.056 4.799 L 8.11 4.914 L 8.285 4.914 L 8.405 4.685 L 8.498 4.707 L 8.574 4.849 L 8.53 5.001 L 8.59 5.078 L 8.656 4.996 L 8.77 5.023 L 8.814 4.947 L 8.943 5.018 L 8.683 5.105 L 8.629 5.183 L 8.645 5.263 L 8.787 5.247 L 8.599 5.508 L 8.77 5.514 L 8.7 5.623 L 8.803 5.694 L 8.858 5.623 L 8.844 5.862 L 8.745 5.915 L 8.749 6.054 L 8.798 6.054 L 8.758 6.164 L 8.661 6.201 L 8.536 6.289 L 8.312 6.289 L 8.268 6.376 L 8.361 6.382 L 8.17 6.512 L 8.056 6.523 L 8.012 6.578 L 7.952 6.507 L 7.97 6.399 L 7.887 6.379 L 7.87 6.458 L 7.396 6.621 L 7.265 6.621 L 7.085 6.512 L 7.03 6.621 L 6.861 6.621 L 6.61 6.709 L 6.354 6.713 L 6.357 6.657 L 6.25 6.627 L 6.196 6.501 L 6.065 6.381 L 5.928 6.272 L 5.93 6.131 L 5.748 5.885 L 5.699 5.901 L 5.585 5.83 L 5.31 5.743 L 5.396 5.594 L 5.532 5.615 L 5.76 5.609 L 5.814 5.487 L 5.699 5.47 L 5.945 5.323 L 5.792 5.312 L 5.868 5.018 L 5.798 5.018 L 5.601 4.843 L 5.463 4.882 L 5.4 4.822 Z" fill="#B0B0D0"/>
</svg>