<svg xmlns="http://www.w3.org/2000/svg" viewBox="5.669 14.888 2.635 2.894">
  <path d="M 6.512 15.618 L 6.511 15.494 L 6.669 15.361 L 6.891 15.477 L 6.886 15.557 L 6.944 15.541 L 7.077 15.548 L 7.186 15.602 L 7.23 15.482 L 7.412 15.447 L 7.477 15.331 L 7.24 15.259 L 7.23 15.199 L 7.322 15.177 L 7.431 15.117 L 7.453 15.029 L 7.508 14.969 L 7.628 14.909 L 7.911 14.888 L 7.87 15.105 L 7.791 15.259 L 7.735 15.309 L 7.624 15.303 L 7.606 15.406 L 7.488 15.472 L 7.579 15.591 L 7.583 15.773 L 7.696 15.873 L 7.909 15.703 L 8.201 15.711 L 8.304 15.897 L 8.228 16.082 L 8.151 16.12 L 8.162 16.551 L 8.135 16.677 L 8.059 16.693 L 8.026 17.075 L 7.71 17.528 L 7.71 17.588 L 7.666 17.686 L 7.568 17.61 L 7.415 17.571 L 7.066 17.577 L 6.973 17.691 L 6.897 17.664 L 6.88 17.631 L 6.82 17.675 L 6.657 17.708 L 6.64 17.604 L 6.553 17.776 L 5.996 17.782 L 6.014 17.73 L 5.84 17.73 L 5.849 17.653 L 5.975 17.648 L 5.975 17.588 L 5.691 17.593 L 5.975 17.5 L 5.942 17.43 L 5.702 17.43 L 5.708 17.353 L 5.669 17.348 L 5.954 17.181 L 5.683 17.125 L 5.775 17.025 L 5.976 17.065 L 6.193 16.868 L 6.64 16.911 L 6.597 16.851 L 6.605 16.758 L 6.428 16.863 L 6.122 16.819 L 6.362 16.672 L 6.417 16.53 L 6.58 16.437 L 6.702 16.434 L 6.699 16.375 L 6.395 16.273 L 6.422 16.186 L 6.324 16.191 L 6.313 16.099 L 6.259 16.066 L 6.25 15.945 L 6.324 15.948 L 6.362 15.919 L 6.395 15.859 L 6.588 15.823 L 6.586 15.766 L 6.4 15.673 L 6.384 15.586 Z" fill="#A080C0"/>
</svg>