<svg xmlns="http://www.w3.org/2000/svg" viewBox="21.827 13.648 3.569 1.953">
  <path d="M 22.442 14.07 L 22.551 14.198 L 22.716 14.326 L 22.73 14.389 L 22.813 14.425 L 22.843 14.551 L 22.99 14.649 L 23.129 14.645 L 23.27 14.557 L 23.336 14.425 L 23.315 14.193 L 23.284 13.825 L 23.579 13.67 L 23.834 13.648 L 24.095 13.77 L 24.334 13.952 L 24.462 13.952 L 24.599 13.884 L 24.766 13.903 L 25.007 14.129 L 24.997 14.453 L 25.105 14.479 L 25.169 14.585 L 25.321 14.767 L 25.396 15.046 L 25.294 15.06 L 25.188 15.209 L 25.12 15.429 L 25.017 15.464 L 24.874 15.444 L 24.83 15.479 L 24.814 15.565 L 24.752 15.601 L 24.665 15.6 L 24.566 15.555 L 24.301 15.333 L 24.111 15.251 L 23.903 15.268 L 23.77 15.057 L 23.692 15.027 L 23.565 15.194 L 23.446 15.223 L 23.071 15.149 L 22.843 15.188 L 22.627 15.209 L 22.511 15.181 L 22.339 15.216 L 22.141 15.322 L 22.019 15.478 L 21.969 15.533 L 21.876 15.537 L 21.831 15.459 L 21.827 14.946 L 21.964 14.713 L 21.979 14.423 L 22.15 14.179 L 22.308 14.149 Z" fill="#504545"/>
</svg>