<svg xmlns="http://www.w3.org/2000/svg" viewBox="21.872 15.031 2.891 2.263">
  <path d="M 21.872 15.566 L 22.025 15.527 L 22.057 15.414 L 22.368 15.207 L 22.614 15.183 L 22.668 15.218 L 23.012 15.154 L 23.286 15.18 L 23.514 15.213 L 23.695 15.031 L 23.769 15.046 L 23.916 15.276 L 24.107 15.257 L 24.692 15.611 L 24.702 15.68 L 24.599 15.714 L 24.623 15.876 L 24.763 15.884 L 24.729 16.056 L 24.599 16.063 L 24.54 16.161 L 24.386 16.242 L 24.375 16.553 L 24.319 16.722 L 24.464 16.949 L 24.348 16.982 L 24.242 16.884 L 24.152 16.888 L 24.099 16.995 L 23.965 17.016 L 23.992 17.177 L 23.832 17.178 L 23.804 17.259 L 23.6 17.252 L 23.475 17.294 L 23.308 17.283 L 23.263 17.127 L 22.904 16.961 L 22.87 16.667 L 22.908 16.586 L 22.758 16.335 L 22.671 16.323 L 22.58 16.362 L 22.388 16.348 L 22.148 16.215 L 22.059 16.244 L 22.02 16.123 L 22 15.991 L 21.974 15.86 L 21.907 15.733 Z" fill="#904045"/>
</svg>