<svg width="17" height="16" viewBox="0 0 17 16" fill="none" xmlns="http://www.w3.org/2000/svg">
<path d="M2.1024 4.7072L8.5 7.9056L14.8976 4.7072C14.8739 4.29956 14.6953 3.91639 14.3983 3.63618C14.1012 3.35597 13.7083 3.19993 13.3 3.2H3.7C3.29167 3.19993 2.89876 3.35597 2.60174 3.63618C2.30473 3.91639 2.12608 4.29956 2.1024 4.7072Z" fill="#1E1F26"/>
<path d="M14.9 6.4944L8.5 9.6944L2.1 6.4944V11.2C2.1 11.6243 2.26857 12.0313 2.56863 12.3314C2.86869 12.6314 3.27565 12.8 3.7 12.8H13.3C13.7243 12.8 14.1313 12.6314 14.4314 12.3314C14.7314 12.0313 14.9 11.6243 14.9 11.2V6.4944Z" fill="#1E1F26"/>
</svg>
