<svg xmlns="http://www.w3.org/2000/svg" viewBox="25.72 21.832 2.192 2.564">
  <path d="M 25.72 22.078 L 25.742 21.933 L 25.966 21.933 L 26.074 21.832 L 26.306 21.843 L 26.552 22.002 L 26.721 22.037 L 26.82 21.976 L 26.964 21.995 L 27.019 22.083 L 27.152 22.056 L 27.228 22.107 L 27.239 22.465 L 27.362 22.58 L 27.449 22.584 L 27.489 22.639 L 27.496 22.762 L 27.564 22.845 L 27.586 22.906 L 27.724 22.914 L 27.839 23.037 L 27.857 23.178 L 27.912 23.297 L 27.875 23.405 L 27.778 23.442 L 27.546 23.413 L 27.489 23.474 L 27.438 23.413 L 27.358 23.449 L 27.344 23.854 L 27.272 23.868 L 27.228 23.966 L 27.246 24.06 L 27.188 24.064 L 27.159 24.143 L 27.156 24.299 L 27.12 24.367 L 27.004 24.396 L 26.96 24.205 L 26.946 24.056 L 26.866 23.97 L 26.848 23.561 L 26.733 23.243 L 26.476 22.935 L 26.259 22.668 L 26.125 22.393 L 25.926 22.198 Z" fill="#209520"/>
</svg>