<svg xmlns="http://www.w3.org/2000/svg" viewBox="12.648 17.811 2.113 2.321">
  <path d="M 12.648 19.428 L 12.767 19.426 L 12.853 19.503 L 13.046 19.434 L 12.882 19.422 L 12.882 19.338 L 12.959 19.304 L 13.087 19.3 L 13.23 19.262 L 13.453 19.255 L 13.435 19.182 L 13.376 19.157 L 13.363 19.204 L 13.23 19.199 L 13.15 19.126 L 13.098 19.029 L 13.129 18.928 L 13.38 18.691 L 13.564 18.201 L 13.652 18.193 L 13.745 18.364 L 13.626 18.376 L 13.613 18.639 L 13.802 18.767 L 13.821 18.618 L 13.782 18.603 L 13.776 18.531 L 13.888 18.493 L 13.904 18.341 L 13.971 18.291 L 13.954 18.225 L 13.872 18.227 L 13.868 18.019 L 13.912 17.947 L 14.034 17.856 L 14.225 17.811 L 14.333 17.86 L 14.388 17.859 L 14.458 17.811 L 14.611 17.825 L 14.723 17.912 L 14.761 18.016 L 14.613 18.407 L 14.472 18.489 L 14.448 18.559 L 14.479 18.625 L 14.625 18.698 L 14.636 18.768 L 14.587 18.869 L 14.417 18.952 L 14.426 19.055 L 14.346 19.168 L 14.284 19.17 L 14.082 19.095 L 14.036 19.109 L 14.035 19.439 L 14.002 19.704 L 13.919 19.868 L 13.943 20.132 L 13.831 20.127 L 13.757 20.079 L 13.735 20.009 L 13.755 19.885 L 13.773 19.791 L 13.755 19.655 L 13.627 19.638 L 13.547 19.551 L 13.421 19.425 L 13.226 19.422 L 13.108 19.446 L 12.92 19.537 L 12.809 19.575 L 12.711 19.516 Z" fill="#B050B0"/>
</svg>