<svg xmlns="http://www.w3.org/2000/svg" viewBox="14.501 2.763 9.235 11.1">
  <path d="M 14.917 10.198 L 14.998 10.291 L 15.064 10.225 L 15.189 10.214 L 15.249 10.318 L 15.309 10.176 L 15.386 10.1 L 15.451 10.231 L 15.544 10.007 L 15.429 9.996 L 15.446 9.925 L 15.697 9.92 L 15.899 9.952 L 15.92 9.849 L 15.789 9.81 L 15.74 9.669 L 15.784 9.614 L 15.942 9.674 L 15.959 9.494 L 16.259 9.434 L 16.379 9.361 L 16.397 9.257 L 16.344 9.168 L 16.619 9.058 L 16.637 9.167 L 16.627 9.366 L 16.717 9.33 L 16.704 9.185 L 16.864 9.123 L 16.949 9.319 L 17.22 9.234 L 17.476 8.96 L 17.022 9.208 L 16.876 8.927 L 17.018 8.872 L 17.039 8.736 L 17.356 8.349 L 17.489 8.452 L 17.628 8.381 L 17.564 8.16 L 17.598 8.07 L 17.742 7.915 L 17.978 7.891 L 17.945 7.76 L 17.869 7.825 L 17.852 7.716 L 17.946 7.59 L 18.038 7.694 L 18.068 7.574 L 17.99 7.548 L 18.003 7.432 L 18.088 7.45 L 18.137 7.275 L 18.245 7.285 L 18.201 7.165 L 18.037 7.266 L 18.077 7.161 L 18.346 6.981 L 18.362 6.916 L 18.267 6.903 L 18.267 6.797 L 18.403 6.797 L 18.398 6.728 L 18.298 6.722 L 18.334 6.617 L 18.422 6.617 L 18.401 6.555 L 18.491 6.557 L 18.475 6.391 L 18.579 6.371 L 18.672 6.361 L 18.734 6.126 L 18.874 5.9 L 19.026 6.02 L 19.234 5.9 L 19.031 5.92 L 19.098 5.739 L 19.07 5.602 L 19.179 5.567 L 19.245 5.406 L 19.305 5.625 L 19.386 5.469 L 19.348 5.3 L 19.096 5.272 L 18.737 5.409 L 18.699 5.311 L 18.939 5.201 L 18.961 5.098 L 18.699 5.054 L 18.699 4.918 L 18.961 4.787 L 19.021 4.945 L 19.125 4.787 L 19.065 4.64 L 19.299 4.454 L 19.305 4.678 L 19.206 4.814 L 19.201 5.065 L 19.299 4.836 L 19.414 4.891 L 19.376 5.152 L 19.681 4.972 L 19.741 4.792 L 19.763 4.656 L 19.452 4.694 L 19.512 4.4 L 19.719 4.225 L 19.861 4.454 L 19.932 4.252 L 19.85 4.198 L 20.094 4.053 L 20.082 4.249 L 20.262 4.523 L 20.177 4.314 L 20.149 4.107 L 20.345 4.061 L 20.368 4.342 L 20.441 3.964 L 20.536 3.945 L 20.556 4.356 L 20.665 3.958 L 20.752 4.024 L 20.836 3.875 L 21.063 4.11 L 21.036 3.822 L 20.849 3.723 L 20.97 3.598 L 21.117 3.745 L 21.183 3.669 L 21.393 3.857 L 21.352 3.636 L 21.156 3.593 L 21.244 3.483 L 21.379 3.325 L 21.467 3.489 L 21.619 3.434 L 21.614 3.314 L 21.619 3.085 L 21.69 2.976 L 21.902 3.116 L 22.008 3.023 L 21.832 2.938 L 21.985 2.829 L 22.094 2.927 L 22.023 3.118 L 21.898 3.358 L 21.892 3.467 L 21.876 3.664 L 21.963 3.614 L 22.05 3.358 L 22.248 2.925 L 22.296 3.162 L 22.318 3.374 L 22.399 3.314 L 22.506 2.848 L 22.699 2.763 L 22.759 2.878 L 22.727 2.998 L 22.623 3.003 L 22.656 3.167 L 22.705 3.069 L 22.759 3.102 L 22.705 3.271 L 22.904 3.248 L 22.857 3.091 L 22.844 2.933 L 23.032 2.9 L 23.043 3.036 L 23.141 2.954 L 23.201 3.02 L 23.234 2.965 L 23.376 3.091 L 23.435 3.049 L 23.601 3.214 L 23.376 3.44 L 22.929 3.449 L 23.009 3.519 L 23.363 3.615 L 23.33 3.806 L 23.505 3.751 L 23.736 3.631 L 23.714 3.794 L 23.556 3.876 L 23.485 4.04 L 23.349 4.149 L 23.31 4.307 L 23.223 4.264 L 23.25 4.144 L 23.305 4.013 L 23.212 3.784 L 22.918 3.664 L 22.83 3.587 L 22.356 3.762 L 22.247 4.018 L 22.268 4.378 L 22.285 4.498 L 22.088 4.76 L 21.925 4.858 L 21.767 4.695 L 21.625 4.88 L 21.287 4.858 L 21.15 4.629 L 20.921 4.415 L 20.812 4.411 L 20.833 4.567 L 20.694 4.611 L 20.518 4.629 L 20.539 4.809 L 20.487 5.016 L 20.534 5.163 L 20.081 5.087 L 19.927 5.145 L 19.945 5.376 L 19.863 5.6 L 19.683 5.431 L 19.46 5.669 L 19.436 5.845 L 19.317 6.015 L 19.404 6.265 L 19.29 6.462 L 19.039 6.789 L 19.001 7.04 L 18.87 7.16 L 18.75 7.138 L 18.777 7.515 L 18.684 7.907 L 18.428 8.382 L 18.592 8.551 L 18.515 8.862 L 18.259 8.823 L 17.921 8.985 L 17.723 9.33 L 17.817 9.675 L 17.692 10.057 L 17.752 10.793 L 17.915 10.968 L 17.932 11.273 L 17.664 11.448 L 17.752 11.551 L 17.817 11.802 L 17.752 12.026 L 17.749 12.272 L 17.539 12.37 L 17.43 12.55 L 17.364 12.642 L 17.392 12.85 L 17.295 13.223 L 17.206 13.17 L 17.157 12.975 L 16.966 12.882 L 16.944 12.402 L 16.928 12.288 L 16.852 12.342 L 16.879 12.702 L 16.819 12.506 L 16.77 12.664 L 16.852 12.86 L 16.737 13.04 L 16.541 13.073 L 16.421 12.97 L 16.442 13.079 L 16.175 13.401 L 15.881 13.668 L 15.738 13.733 L 15.679 13.63 L 15.597 13.755 L 15.455 13.864 L 15.297 13.782 L 15.313 13.69 L 15.171 13.75 L 15.057 13.711 L 15.106 13.526 L 14.997 13.597 L 14.566 13.171 L 14.691 12.899 L 14.773 12.986 L 14.957 12.706 L 14.947 12.633 L 15.086 12.497 L 14.888 12.522 L 14.501 12.779 L 14.526 12.534 L 14.708 12.32 L 14.882 12.353 L 15.041 12.25 L 14.844 12.195 L 15.095 11.977 L 15.051 11.868 L 15.275 11.715 L 15.319 11.786 L 15.417 11.666 L 15.237 11.606 L 14.893 11.906 L 14.871 12.075 L 14.735 12.151 L 14.672 12.275 L 14.642 12.086 L 14.817 11.993 L 14.795 11.802 L 14.719 11.895 L 14.678 11.745 L 14.931 11.524 L 14.801 11.513 L 14.697 11.579 L 14.648 11.36 L 14.784 11.388 L 14.806 11.295 L 14.702 11.273 L 14.741 11.148 L 15.166 11.186 L 15.45 11.202 L 15.504 11.366 L 15.57 11.333 L 15.542 11.197 L 15.804 11.104 L 15.679 11.082 L 15.81 10.88 L 15.542 11.093 L 15.319 11.093 L 15.346 10.897 L 15.215 11.06 L 14.811 11.082 L 14.741 10.984 L 14.795 10.777 L 14.888 10.689 L 14.773 10.58 L 14.989 10.463 L 15.076 10.546 L 15.347 10.542 L 15.162 10.423 L 14.871 10.417 Z" fill="#30A0C0"/>
</svg>