<svg xmlns="http://www.w3.org/2000/svg" viewBox="18.445 16.749 5.518 4.876">
  <path d="M 18.552 17.615 L 19.005 17.364 L 19.142 17.381 L 19.466 17.251 L 19.773 16.96 L 20.061 16.829 L 20.428 16.75 L 20.699 16.749 L 20.848 16.831 L 20.86 16.927 L 20.679 16.863 L 20.792 17.17 L 21.042 17.138 L 21.269 17.033 L 21.746 17.13 L 22.231 17.13 L 22.644 17.041 L 22.894 16.96 L 23.234 17.13 L 23.307 17.3 L 23.355 17.518 L 23.574 17.984 L 23.612 18.376 L 23.493 18.537 L 23.258 18.747 L 23.541 19.016 L 23.533 19.362 L 23.629 19.575 L 23.63 19.661 L 23.859 19.969 L 23.857 20.09 L 23.963 20.196 L 23.913 20.397 L 23.826 20.442 L 23.565 20.672 L 23.388 21.003 L 23.307 21.326 L 23.327 21.622 L 23.138 21.625 L 22.83 21.424 L 22.644 21.367 L 22.417 21.424 L 22.287 21.519 L 22.155 21.459 L 21.972 21.489 L 21.849 21.619 L 21.744 21.622 L 21.463 21.367 L 21.309 21.456 L 21.123 21.4 L 20.905 21.327 L 20.711 21.036 L 20.524 21.012 L 20.458 20.944 L 20.452 20.761 L 20.234 20.761 L 19.983 20.656 L 19.985 20.824 L 19.87 20.866 L 19.637 20.681 L 19.675 20.58 L 19.666 20.491 L 19.534 20.495 L 19.448 20.349 L 19.154 20.336 L 19.112 20.233 L 18.978 20.182 L 18.867 20.34 L 18.777 20.298 L 18.873 19.831 L 18.673 19.572 L 18.621 18.668 L 18.489 18.616 L 18.445 18.475 L 18.569 18.216 L 18.57 17.943 L 18.456 17.731 L 18.637 17.794 L 18.665 17.688 L 18.665 17.688 Z" fill="#4090A5"/>
</svg>