<svg xmlns="http://www.w3.org/2000/svg" viewBox="2.72 26.004 2.663 4.348">
  <path d="M 3.841 26.124 L 3.979 26.021 L 4.305 26.004 L 4.269 26.197 L 4.768 26.381 L 4.901 26.336 L 5.266 26.476 L 5.29 26.634 L 5.383 26.793 L 5.182 26.997 L 4.878 27.178 L 4.797 27.539 L 4.637 27.763 L 4.66 28.095 L 4.523 28.198 L 4.239 28.252 L 4.242 28.565 L 4.334 28.786 L 4.156 29.012 L 4.087 29.206 L 4.093 29.378 L 4.19 29.562 L 4.155 29.695 L 3.745 29.944 L 3.726 30.318 L 3.291 30.352 L 3.143 30.238 L 2.937 30.143 L 2.735 30.152 L 2.72 30.04 L 2.919 29.739 L 3.096 28.995 L 3.189 28.925 L 2.888 28.915 L 2.859 28.728 L 2.752 28.576 L 2.867 28.373 L 2.913 28.152 L 3.135 27.978 L 3.33 27.682 L 3.477 27.354 L 3.778 26.795 Z" fill="#F0A0F0"/>
</svg>