<svg xmlns="http://www.w3.org/2000/svg" viewBox="22.121 22.098 6.071 4.151">
  <path d="M 22.121 24.397 L 22.633 24.176 L 22.729 23.879 L 22.8 23.801 L 22.878 23.515 L 23.015 23.337 L 23.056 23.122 L 23.068 23.021 L 23.217 22.848 L 23.408 22.801 L 23.539 22.604 L 24.236 22.58 L 24.527 22.503 L 24.778 22.64 L 24.944 22.467 L 25.272 22.39 L 25.582 22.116 L 25.737 22.098 L 26.106 22.342 L 26.255 22.658 L 26.719 23.217 L 26.862 23.623 L 26.88 23.968 L 26.999 24.439 L 27.1 24.373 L 27.232 24.546 L 27.386 24.546 L 27.494 24.409 L 27.744 24.302 L 27.905 24.296 L 28.192 24.892 L 27.863 25.022 L 27.854 24.823 L 27.716 24.849 L 27.631 24.897 L 27.673 25.078 L 27.759 25.216 L 27.608 25.415 L 27.629 25.957 L 27.363 25.898 L 27.124 25.779 L 26.755 25.743 L 26.666 25.683 L 26.404 25.737 L 25.939 25.987 L 25.6 26.249 L 24.094 26.191 L 23.914 26.225 L 23.96 25.958 L 23.752 25.836 L 23.644 25.715 L 23.756 25.503 L 23.579 25.438 L 23.419 25.624 L 22.985 25.487 L 22.919 25.195 L 22.764 25.106 L 22.669 25.112 L 22.544 24.891 L 22.514 24.73 L 22.359 24.528 L 22.24 24.462 Z" fill="#E090C0"/>
</svg>