<svg xmlns="http://www.w3.org/2000/svg" viewBox="22.121 22.098 5.861 4.211">
  <path d="M 22.121 24.397 L 22.633 24.176 L 22.729 23.879 L 22.8 23.801 L 22.878 23.515 L 23.015 23.337 L 23.056 23.122 L 23.068 23.021 L 23.217 22.848 L 23.408 22.801 L 23.539 22.604 L 24.236 22.58 L 24.527 22.503 L 24.778 22.64 L 24.944 22.467 L 25.272 22.39 L 25.582 22.116 L 25.737 22.098 L 26.106 22.342 L 26.255 22.658 L 26.719 23.217 L 26.862 23.623 L 26.88 23.968 L 26.999 24.439 L 27.1 24.373 L 27.232 24.546 L 27.386 24.546 L 27.494 24.409 L 27.744 24.302 L 27.905 24.296 L 27.982 24.766 L 27.774 24.885 L 27.583 25.225 L 27.541 25.123 L 27.631 24.897 L 27.619 24.724 L 27.517 24.766 L 27.482 25.094 L 27.523 25.844 L 27.363 25.898 L 27.124 25.779 L 26.755 25.743 L 26.666 25.683 L 26.404 25.737 L 25.939 25.987 L 25.6 26.249 L 24.051 26.309 L 23.914 26.225 L 23.944 26.035 L 23.711 25.987 L 23.622 25.802 L 23.705 25.654 L 23.604 25.564 L 23.479 25.671 L 22.985 25.487 L 22.919 25.195 L 22.764 25.106 L 22.669 25.112 L 22.544 24.891 L 22.514 24.73 L 22.359 24.528 L 22.24 24.462 Z" fill="#C07000"/>
</svg>