<svg xmlns="http://www.w3.org/2000/svg" viewBox="20.02 21.378 3.181 1.64">
  <path d="M 20.02 22.364 L 20.121 22.156 L 20.211 22.129 L 20.282 22.179 L 20.419 22.164 L 20.555 22.049 L 20.557 21.975 L 20.673 21.955 L 20.7 21.846 L 20.711 21.663 L 20.806 21.67 L 20.932 21.467 L 21.04 21.49 L 21.112 21.424 L 21.229 21.46 L 21.343 21.431 L 21.405 21.397 L 21.487 21.378 L 21.721 21.643 L 21.84 21.651 L 21.989 21.475 L 22.211 21.478 L 22.309 21.533 L 22.379 21.509 L 22.392 21.445 L 22.548 21.387 L 22.747 21.383 L 23.1 21.631 L 23.201 21.646 L 23.064 22.302 L 22.923 22.328 L 22.709 22.207 L 22.536 22.194 L 22.435 22.24 L 22.259 22.228 L 22.104 22.351 L 22.046 22.489 L 21.946 22.511 L 21.856 22.58 L 21.716 22.577 L 21.662 22.535 L 21.596 22.538 L 21.552 22.601 L 21.459 22.666 L 21.151 22.765 L 21.032 22.914 L 21.016 22.992 L 20.965 22.977 L 20.93 23.006 L 20.576 23.018 L 20.177 22.773 L 20.056 22.55 L 20.056 22.55 Z" fill="#C070C0"/>
</svg>