<svg xmlns="http://www.w3.org/2000/svg" viewBox="17.972 23.823 1.929 1.415">
  <path d="M 18.112 24.167 L 18.481 24.198 L 18.608 24.217 L 18.711 24.156 L 18.749 24.068 L 18.987 23.987 L 19.155 24.048 L 19.216 23.937 L 19.442 23.96 L 19.469 23.872 L 19.58 23.823 L 19.706 23.846 L 19.821 24.075 L 19.901 24.15 L 19.813 24.156 L 19.722 24.083 L 19.653 24.144 L 19.699 24.263 L 19.575 24.259 L 19.553 24.343 L 19.314 24.418 L 19.267 24.47 L 19.289 24.546 L 19.366 24.619 L 19.358 24.722 L 19.304 24.814 L 19.212 24.825 L 19.098 24.89 L 19.089 24.941 L 19.128 24.985 L 19.082 25.032 L 19.086 25.185 L 19.017 25.238 L 18.959 25.164 L 18.862 25.112 L 18.799 25.183 L 18.66 24.963 L 18.604 24.982 L 18.586 25.104 L 18.516 25.139 L 18.37 25.139 L 18.305 25.086 L 18.256 25.132 L 18.085 25.126 L 18.045 25.082 L 18.046 25.036 L 18.145 25.053 L 18.235 25.033 L 18.256 24.888 L 18.194 24.861 L 18.169 24.789 L 18.104 24.776 L 18.053 24.699 L 18.022 24.577 L 18.011 24.479 L 18.06 24.469 L 18.041 24.416 L 17.972 24.416 L 17.988 24.274 L 18.072 24.244 Z" fill="#907090"/>
</svg>