<svg xmlns="http://www.w3.org/2000/svg" viewBox="3.737 24.645 8.035 6.996">
  <path d="M 3.943 24.868 L 4.203 24.831 L 4.45 24.89 L 4.652 24.645 L 4.925 24.655 L 5.138 24.843 L 5.665 25.051 L 5.971 25.05 L 6.845 25.478 L 7.301 25.545 L 7.624 25.695 L 7.991 25.749 L 8.06 25.827 L 8.334 25.876 L 8.651 26.259 L 8.811 26.315 L 8.99 26.513 L 9.613 26.825 L 9.967 26.741 L 10.396 27.111 L 10.578 27.228 L 11.282 27.277 L 11.407 27.353 L 11.424 27.444 L 11.318 27.464 L 11.312 27.684 L 11.251 27.806 L 10.661 28.065 L 10.622 28.149 L 9.791 28.317 L 9.624 28.478 L 9.646 28.531 L 8.801 29.365 L 8.689 29.573 L 8.712 29.862 L 8.763 29.976 L 8.918 30.075 L 8.959 30.157 L 8.887 30.258 L 8.513 30.449 L 8.258 30.76 L 8.161 30.916 L 8.159 31.045 L 7.751 31.036 L 7.497 31.158 L 7.268 31.526 L 7.147 31.587 L 6.952 31.499 L 6.758 31.56 L 6.394 31.398 L 6.236 31.415 L 6.063 31.321 L 5.624 31.278 L 5.436 31.406 L 5.164 31.368 L 4.856 31.641 L 4.616 31.587 L 4.419 31.345 L 4.374 30.989 L 4.312 30.963 L 4.325 30.71 L 4.091 30.412 L 3.737 30.305 L 3.746 29.956 L 4.152 29.73 L 4.199 29.532 L 4.105 29.324 L 4.123 29.126 L 4.331 28.796 L 4.255 28.522 L 4.252 28.265 L 4.504 28.226 L 4.661 28.098 L 4.633 27.787 L 4.797 27.554 L 4.906 27.182 L 5.171 27.009 L 5.383 26.838 L 5.331 26.498 L 5.11 26.359 L 4.908 26.302 L 4.765 26.362 L 4.308 26.195 L 4.293 26.023 L 4.001 25.994 L 3.806 26.073 L 3.869 25.929 L 4.022 25.746 L 3.953 25.703 L 4.02 25.611 L 3.92 25.539 L 4.037 25.425 L 3.93 25.328 L 3.982 25.231 L 3.842 25.097 L 3.852 24.995 Z M 10.513 29.666 L 11.067 29.402 L 11.045 29.599 L 11.174 29.67 L 11.094 29.902 L 10.969 30.023 L 10.736 29.867 L 10.719 29.76 L 10.567 29.791 Z M 11.522 29.447 L 11.772 29.425 L 11.768 29.679 Z M 9.638 30.166 L 9.879 29.978 L 9.888 30.139 L 9.754 30.233 Z" fill="#50A0f0"/>
</svg>