<svg xmlns="http://www.w3.org/2000/svg" viewBox="17.123 4.622 5.047 12.03">
  <path d="M 19.924 5.499 L 19.951 5.304 L 19.926 5.191 L 19.973 5.104 L 20.215 5.105 L 20.488 5.184 L 20.563 5.154 L 20.502 5.03 L 20.572 4.815 L 20.517 4.674 L 20.558 4.622 L 20.679 4.633 L 21.134 5.024 L 21.376 5.082 L 21.739 5.461 L 21.748 5.849 L 21.837 5.889 L 21.803 6.108 L 22.033 6.488 L 22.022 6.834 L 22.17 7.167 L 22.134 7.25 L 22.095 7.166 L 21.874 7.174 L 21.831 7.271 L 21.706 7.163 L 21.645 7.271 L 21.557 7.18 L 21.535 7.424 L 21.43 7.329 L 21.419 7.385 L 21.502 7.49 L 21.272 7.663 L 21.355 7.824 L 21.297 8.003 L 21.209 8.084 L 21.249 8.274 L 21.406 8.4 L 21.383 8.539 L 21.33 8.47 L 21.174 8.72 L 21.16 8.842 L 20.926 9.108 L 20.881 9.058 L 20.743 9.256 L 20.658 9.22 L 20.512 9.445 L 20.391 9.455 L 20.387 9.541 L 20.313 9.547 L 20.318 9.638 L 20.261 9.645 L 20.257 9.696 L 20.196 9.71 L 20.212 9.784 L 20.142 9.821 L 20.114 9.891 L 19.993 9.811 L 20.043 10.051 L 19.946 10.171 L 19.84 10.091 L 19.827 10.228 L 19.904 10.36 L 19.871 10.485 L 19.865 10.675 L 19.895 10.868 L 19.771 10.787 L 19.764 11.186 L 19.834 11.662 L 19.876 11.767 L 19.845 11.878 L 19.632 12.031 L 19.449 12.11 L 19.428 12.173 L 19.526 12.173 L 19.792 12.075 L 19.904 11.921 L 19.947 11.731 L 20.024 11.807 L 20.174 11.792 L 20.217 11.941 L 20.38 12.01 L 20.331 12.075 L 20.527 12.239 L 20.569 12.427 L 20.499 12.558 L 20.31 12.726 L 20.156 12.775 L 20.065 12.698 L 19.981 12.726 L 19.922 12.68 L 19.85 12.703 L 19.766 12.644 L 19.654 12.649 L 19.526 12.677 L 19.449 12.74 L 19.616 12.744 L 19.776 12.801 L 19.925 12.917 L 20.492 12.796 L 20.422 12.925 L 20.359 12.894 L 20.343 12.997 L 20.248 13.08 L 20.184 13.202 L 20.085 13.202 L 20.081 13.088 L 20.012 13.105 L 20.017 13.219 L 19.862 13.356 L 19.757 13.363 L 19.771 13.447 L 19.689 13.452 L 19.589 13.412 L 19.407 13.467 L 19.646 13.511 L 19.691 13.605 L 19.564 13.629 L 19.675 13.709 L 19.65 14.063 L 19.55 14.08 L 19.628 14.22 L 19.61 14.507 L 19.514 15.098 L 19.362 15.468 L 19.343 15.631 L 18.895 15.601 L 18.749 15.621 L 18.585 15.73 L 18.498 15.97 L 18.476 16.281 L 18.214 16.238 L 18.013 16.303 L 17.786 16.274 L 17.889 16.054 L 17.658 15.578 L 17.762 15.518 L 17.74 15.374 L 17.854 15.376 L 17.871 15.245 L 17.699 15.099 L 17.566 14.94 L 17.489 14.547 L 17.396 14.538 L 17.387 14.314 L 17.475 14.165 L 17.348 14.145 L 17.387 14.013 L 17.347 13.925 L 17.24 13.876 L 17.309 13.783 L 17.299 13.625 L 17.211 13.718 L 17.208 13.627 L 17.144 13.603 L 17.123 13.139 L 17.189 13.025 L 17.207 13.222 L 17.322 13.227 L 17.391 13.003 L 17.379 12.619 L 17.47 12.545 L 17.505 12.37 L 17.741 12.283 L 17.798 12.131 L 17.762 12.012 L 17.826 11.772 L 17.705 11.435 L 17.954 11.257 L 17.976 11.011 L 17.735 10.761 L 17.724 10.024 L 17.823 9.621 L 17.73 9.474 L 17.776 9.25 L 17.954 8.986 L 18.244 8.843 L 18.512 8.889 L 18.583 8.787 L 18.605 8.536 L 18.452 8.35 L 18.72 7.843 L 18.762 7.571 L 18.759 7.143 L 18.96 7.095 L 19.035 6.987 L 19.043 6.808 L 19.407 6.31 L 19.413 6.237 L 19.287 6.041 L 19.44 5.835 L 19.458 5.655 L 19.663 5.464 L 19.756 5.481 L 19.863 5.599 Z M 18.728 16.39 L 18.894 16.484 L 18.915 16.649 L 18.749 16.637 L 18.703 16.496 Z M 20.374 14.289 L 20.557 14.064 L 20.739 14.047 L 20.739 14.17 L 20.684 14.187 L 20.701 14.506 L 20.399 14.889 Z M 19.814 14.554 L 19.847 14.613 L 19.654 15.364 L 19.558 15.529 L 19.548 15.245 Z" fill="#A0A0F0"/>
</svg>