<svg xmlns="http://www.w3.org/2000/svg" viewBox="13.461 22.973 2.711 1.573">
  <path d="M 14.169 23.024 L 14.355 23.07 L 14.511 22.973 L 14.566 23.055 L 15.282 23.016 L 15.441 23.052 L 15.633 23.17 L 15.74 23.281 L 15.676 23.328 L 15.652 23.422 L 15.663 23.538 L 15.729 23.594 L 15.821 23.686 L 15.955 23.732 L 16.035 23.743 L 16.069 23.694 L 16.172 23.771 L 16.115 24 L 16.015 23.974 L 15.935 24.072 L 15.962 24.248 L 15.859 24.244 L 15.794 24.206 L 15.584 24.214 L 15.549 24.11 L 15.469 24.065 L 15.427 24.164 L 15.236 24.546 L 15.167 24.524 L 14.987 24.302 L 14.949 24.088 L 14.815 24.11 L 14.589 24.436 L 14.027 24.474 L 14.015 24.36 L 13.912 24.332 L 13.928 24.003 L 13.706 23.965 L 13.584 24.145 L 13.478 24.177 L 13.461 24.057 L 13.53 23.793 L 13.74 23.621 L 13.855 23.407 L 14.004 23.302 L 14.134 23.181 L 14.111 23.101 Z" fill="#5050A0"/>
</svg>