<svg xmlns="http://www.w3.org/2000/svg" viewBox="23.064 17.753 10.05 6.892">
  <path d="M 23.154 21.659 L 23.35 21.646 L 23.31 21.477 L 23.35 21.161 L 23.512 20.781 L 23.739 20.563 L 23.949 20.353 L 23.941 20.158 L 23.876 20.07 L 23.892 19.932 L 23.755 19.819 L 23.617 19.592 L 23.529 19.403 L 23.633 19.334 L 23.779 19.342 L 23.997 19.188 L 23.997 19.059 L 24.353 18.937 L 24.466 18.946 L 24.757 18.889 L 25 19.018 L 25.235 19.01 L 25.437 19.043 L 25.509 19.172 L 25.712 19.148 L 25.809 19.245 L 26.067 19.067 L 26.156 19.131 L 26.278 19.123 L 26.423 19.196 L 26.585 18.962 L 26.828 19.196 L 26.884 19.091 L 27.191 19.01 L 27.321 19.091 L 27.445 19.028 L 27.361 18.606 L 27.515 18.315 L 27.733 18.193 L 27.887 18.169 L 28.016 18.218 L 28.105 18.161 L 28.194 17.959 L 28.429 17.943 L 28.582 17.846 L 28.752 17.821 L 28.869 17.753 L 29.061 17.864 L 29.092 17.975 L 29.197 18.016 L 29.334 18.121 L 29.326 18.185 L 29.205 18.177 L 29.245 18.396 L 29.391 18.582 L 29.666 18.606 L 29.803 18.525 L 29.957 18.687 L 30.127 18.889 L 30.119 19.067 L 30.264 19.164 L 30.361 19.164 L 30.475 19.083 L 30.62 19.131 L 30.838 19.115 L 31.154 18.921 L 31.275 18.897 L 31.396 19.002 L 31.623 19.204 L 31.712 19.131 L 31.825 19.067 L 31.914 19.123 L 32.108 19.14 L 32.221 19.107 L 32.31 19.123 L 32.359 19.172 L 32.472 19.156 L 32.569 19.164 L 32.844 19.148 L 32.795 19.229 L 32.86 19.326 L 32.965 19.374 L 32.949 19.625 L 32.803 19.673 L 32.803 19.77 L 32.957 19.778 L 32.86 19.875 L 32.86 20.029 L 33.095 20.328 L 33.111 20.749 L 32.803 20.838 L 32.617 20.765 L 32.585 21.064 L 32.423 21.088 L 32.399 21.363 L 32.504 21.533 L 32.141 21.738 L 32.034 21.887 L 31.841 22.026 L 31.831 22.182 L 31.712 22.132 L 31.283 22.423 L 31.113 22.681 L 31.058 22.852 L 31.039 22.952 L 30.962 22.963 L 31.031 22.756 L 30.935 22.592 L 30.855 22.989 L 30.96 23.223 L 30.895 23.239 L 30.767 23.051 L 30.491 23.053 L 30.434 22.89 L 30.378 22.956 L 30.369 23.086 L 30.231 23.07 L 30.305 23.175 L 30.399 23.17 L 30.449 23.296 L 30.537 23.292 L 30.539 23.183 L 30.725 23.223 L 30.717 23.361 L 30.832 23.3 L 30.83 23.442 L 30.939 23.384 L 31.042 23.403 L 31.108 23.625 L 31.493 23.579 L 31.623 23.393 L 31.654 23.461 L 31.976 23.284 L 31.982 23.631 L 31.749 23.769 L 31.456 23.748 L 31.207 24.11 L 31.02 24.138 L 30.947 24.249 L 30.879 24.463 L 30.715 24.608 L 30.501 24.645 L 30.35 24.559 L 30.337 24.179 L 30.22 24.012 L 30.079 24.059 L 29.864 23.935 L 29.649 23.954 L 29.764 23.801 L 29.944 23.51 L 30.274 23.334 L 30.148 23.164 L 30.06 23.133 L 30.079 23.246 L 29.896 23.177 L 29.782 23.265 L 29.493 23.372 L 29.332 23.357 L 29.24 23.284 L 29.051 23.309 L 29.171 23.139 L 28.934 23.143 L 28.987 23.07 L 29.259 23.028 L 29.032 22.856 L 28.85 23.026 L 28.812 22.9 L 28.647 23.066 L 28.367 23.192 L 28.287 23.514 L 28.115 23.395 L 28.037 23.461 L 28.245 23.631 L 28.175 23.877 L 27.988 23.858 L 27.931 24.069 L 27.82 23.851 L 27.923 24.318 L 27.72 24.303 L 27.517 24.394 L 27.383 24.528 L 27.242 24.532 L 27.085 24.393 L 27.142 24.286 L 27.192 24.059 L 27.236 24.053 L 27.211 23.946 L 27.287 23.858 L 27.345 23.843 L 27.356 23.479 L 27.425 23.416 L 27.503 23.45 L 27.556 23.411 L 27.822 23.429 L 27.885 23.316 L 27.848 23.145 L 27.791 22.969 L 27.608 22.912 L 27.509 22.766 L 27.509 22.692 L 27.469 22.597 L 27.369 22.585 L 27.238 22.438 L 27.262 22.31 L 27.192 22.068 L 27.091 22.061 L 27.035 22.099 L 26.916 21.981 L 26.773 21.996 L 26.593 22.042 L 26.34 21.853 L 26.114 21.835 L 25.951 21.916 L 25.761 21.929 L 25.698 22.017 L 25.711 22.101 L 25.554 22.131 L 25.297 22.375 L 25.02 22.435 L 24.76 22.626 L 24.474 22.48 L 24.217 22.587 L 23.575 22.566 L 23.486 22.654 L 23.467 22.503 L 23.215 22.32 L 23.064 22.282 L 23.108 21.929 Z" fill="#0050A0"/>
</svg>