<svg xmlns="http://www.w3.org/2000/svg" viewBox="21.162 24.346 2.8 3.856">
  <path d="M 21.18 27.699 L 21.171 27.592 L 21.26 27.512 L 21.162 27.383 L 21.198 27.146 L 21.296 27.155 L 21.296 26.95 L 21.296 26.95 L 21.43 26.852 L 21.519 26.986 L 21.545 26.861 L 21.475 26.688 L 21.579 26.723 L 21.808 26.625 L 21.831 26.495 L 21.635 26.29 L 21.786 26.29 L 21.864 26.222 L 21.509 25.875 L 21.67 25.603 L 21.652 25.461 L 21.545 25.461 L 21.465 25.309 L 21.501 25.184 L 21.644 25.193 L 21.635 25.122 L 21.412 25.089 L 21.391 24.999 L 21.412 24.899 L 21.305 24.899 L 21.336 24.714 L 21.242 24.622 L 21.384 24.61 L 21.426 24.526 L 21.635 24.524 L 21.759 24.391 L 22.036 24.346 L 22.116 24.435 L 22.348 24.489 L 22.663 25.11 L 22.892 25.157 L 22.976 25.485 L 23.469 25.68 L 23.588 25.523 L 23.695 25.684 L 23.57 25.791 L 23.686 25.978 L 23.802 25.996 L 23.605 26.129 L 23.632 26.531 L 23.962 26.968 L 23.73 27.324 L 23.757 27.663 L 23.115 27.735 L 23.008 27.868 L 22.926 27.751 L 22.746 27.813 L 22.723 27.967 L 22.589 27.967 L 22.321 27.735 L 22.232 27.61 L 22.081 27.619 L 22.002 27.528 L 21.902 27.681 L 21.813 27.708 L 21.801 27.987 L 21.759 28.202 L 21.67 28.136 L 21.661 28.118 L 21.586 27.994 Z" fill="#E090C0"/>
</svg>