<svg xmlns="http://www.w3.org/2000/svg" viewBox="21.242 24.346 2.781 3.559">
  <path d="M 22.07 27.256 L 22.08 27.075 L 22.258 26.942 L 21.946 26.836 L 21.762 26.706 L 21.743 26.496 L 21.714 26.321 L 21.667 26.166 L 21.509 25.875 L 21.67 25.603 L 21.652 25.461 L 21.545 25.461 L 21.465 25.309 L 21.501 25.184 L 21.644 25.193 L 21.635 25.122 L 21.412 25.089 L 21.391 24.999 L 21.412 24.899 L 21.305 24.899 L 21.336 24.714 L 21.242 24.622 L 21.384 24.61 L 21.426 24.526 L 21.635 24.524 L 21.759 24.391 L 22.036 24.346 L 22.116 24.435 L 22.348 24.489 L 22.663 25.11 L 22.892 25.157 L 22.976 25.485 L 23.469 25.68 L 23.588 25.523 L 23.695 25.684 L 23.57 25.791 L 23.721 25.85 L 23.74 25.98 L 23.575 26.063 L 23.679 26.511 L 24.023 26.749 L 23.88 27.013 L 23.676 27.109 L 23.772 27.452 L 23.031 27.601 L 22.996 27.773 L 22.853 27.62 L 22.653 27.725 L 22.513 27.808 L 22.453 27.905 L 22.418 27.664 L 22.224 27.47 L 22.106 27.346 Z" fill="#E090C0"/>
</svg>